# xmcd
#
# Track frame offsets: 
#        150
#        20248
#        40909
#        58945
#        71093
#        88116
#        100940
#        121077
#        138701
#        161575
#        176574
#        196073
#        215121
#        227242
#        240890
#
# Disc length: 3480 seconds
#
# Revision: 1
# Processed by: cddbd v1.5.2PL0 Copyright (c) Steve Scherf et al.
# Submitted via: ExactAudioCopyFreeDBPlugin 1.0
#
DISCID=d90d960f
DTITLE=黑鸭子 - DTSES红军装2
DYEAR=2009
DGENRE=DTSES
TTITLE0=我的老班长
TTITLE1=真的好想你
TTITLE2=妻子
TTITLE3=骏马奔驰保边疆
TTITLE4=军中绿花
TTITLE5=大海啊,故乡
TTITLE6=无名花
TTITLE7=军人本色
TTITLE8=十送红军
TTITLE9=十五的月亮
TTITLE10=常回家看看
TTITLE11=听妈妈讲过去的事情
TTITLE12=月亮走我也走
TTITLE13=小白杨
TTITLE14=英雄赞歌
EXTD=
EXTT0=
EXTT1=
EXTT2=
EXTT3=
EXTT4=
EXTT5=
EXTT6=
EXTT7=
EXTT8=
EXTT9=
EXTT10=
EXTT11=
EXTT12=
EXTT13=
EXTT14=
PLAYORDER=
